<svg width="32" height="32" viewBox="0 0 32 32" fill="none" xmlns="http://www.w3.org/2000/svg">
<g clip-path="url(#clip0_0_2746)">
<path d="M7.47135 16.7H6.12679C5.26904 16.7 4.57117 16.0066 4.57117 15.1543C4.57117 14.8954 4.36135 14.6855 4.10242 14.6855C3.84348 14.6855 3.63367 14.8954 3.63367 15.1543C3.63367 16.5235 4.7521 17.6375 6.12685 17.6375H7.47135C7.73029 17.6375 7.9401 17.4277 7.9401 17.1688C7.9401 16.9099 7.73029 16.7 7.47135 16.7Z" fill="white"/>
<path d="M11.8761 20.1692H7.87159C6.54896 20.1692 5.4729 21.2409 5.4729 22.5583C5.4729 22.8173 5.68271 23.0271 5.94165 23.0271C6.20059 23.0271 6.4104 22.8172 6.4104 22.5583C6.4104 21.7579 7.06584 21.1067 7.87159 21.1067H11.8761C12.135 21.1067 12.3448 20.8969 12.3448 20.6379C12.3448 20.379 12.135 20.1692 11.8761 20.1692Z" fill="white"/>
<path d="M15.6954 20.1692H13.7511C13.4922 20.1692 13.2823 20.379 13.2823 20.6379C13.2823 20.8969 13.4922 21.1067 13.7511 21.1067H15.6954C15.9543 21.1067 16.1642 20.8969 16.1642 20.6379C16.1642 20.379 15.9543 20.1692 15.6954 20.1692Z" fill="white"/>
<path d="M12.3995 11.061C12.1405 11.061 11.9307 11.2709 11.9307 11.5298C11.9307 12.8702 10.8338 13.9606 9.4856 13.9606C9.22666 13.9606 9.01685 14.1704 9.01685 14.4293C9.01685 14.6883 9.22666 14.8981 9.4856 14.8981C11.3508 14.8981 12.8682 13.3871 12.8682 11.5298C12.8682 11.2709 12.6584 11.061 12.3995 11.061Z" fill="white"/>
<path d="M11.5354 3.97471C10.4157 3.90283 9.44479 4.75177 9.37216 5.86777C9.35535 6.12614 9.55116 6.34914 9.80947 6.36602C9.81985 6.36671 9.83016 6.36702 9.84041 6.36702C10.0854 6.36702 10.2915 6.17664 10.3077 5.92871C10.3467 5.32821 10.8705 4.87214 11.4752 4.91027C11.7337 4.92758 11.9564 4.73102 11.973 4.47264C11.9897 4.21427 11.7938 3.99139 11.5354 3.97471Z" fill="white"/>
<path d="M9.95898 22.2566C9.70005 22.2566 9.49023 22.4664 9.49023 22.7253C9.49023 22.9843 9.70005 23.1941 9.95898 23.1941C10.733 23.1941 11.3628 23.8197 11.3628 24.5885C11.3628 25.3576 10.733 25.9832 9.95898 25.9832C9.70005 25.9832 9.49023 26.193 9.49023 26.4519C9.49023 26.7108 9.70005 26.9207 9.95898 26.9207C11.25 26.9207 12.3003 25.8745 12.3003 24.5885C12.3003 23.3027 11.25 22.2566 9.95898 22.2566Z" fill="white"/>
<path d="M14.7562 11.2183C14.4973 11.2183 14.2875 11.4281 14.2875 11.687C14.2875 11.9459 14.4973 12.1558 14.7562 12.1558C15.378 12.1558 15.884 12.6581 15.884 13.2756C15.884 13.8931 15.378 14.3955 14.7562 14.3955C14.4973 14.3955 14.2875 14.6053 14.2875 14.8643C14.2875 15.1232 14.4973 15.333 14.7562 15.333C15.895 15.333 16.8215 14.41 16.8215 13.2756C16.8215 12.1412 15.895 11.2183 14.7562 11.2183Z" fill="white"/>
<path d="M6.49884 8.23804C6.2399 8.23804 6.03009 8.44785 6.03009 8.70679C6.03009 8.96572 6.2399 9.17554 6.49884 9.17554C7.56722 9.17554 8.43634 10.0393 8.43634 11.101C8.43634 12.1628 7.56722 13.0267 6.49884 13.0267C6.2399 13.0267 6.03009 13.2365 6.03009 13.4954C6.03009 13.7543 6.2399 13.9642 6.49884 13.9642C8.08409 13.9642 9.37384 12.6798 9.37384 11.101C9.37384 9.52235 8.08409 8.23804 6.49884 8.23804Z" fill="white"/>
<path d="M28.5351 8.2168C27.6541 8.2168 26.9373 8.93111 26.9373 9.80911C26.9373 10.6872 27.6541 11.4015 28.5351 11.4015C29.4162 11.4015 30.133 10.6872 30.133 9.80911C30.133 8.93111 29.4162 8.2168 28.5351 8.2168ZM28.5352 10.464C28.1711 10.464 27.8748 10.1703 27.8748 9.80917C27.8748 9.44811 28.171 9.15436 28.5352 9.15436C28.8993 9.15436 29.1956 9.44811 29.1956 9.80917C29.1956 10.1702 28.8993 10.464 28.5352 10.464Z" fill="white"/>
<path d="M30.1014 20.2136C29.2203 20.2136 28.5035 20.9279 28.5035 21.806C28.5035 22.6841 29.2204 23.3983 30.1014 23.3983C30.9825 23.3983 31.6992 22.684 31.6992 21.806C31.6992 20.928 30.9825 20.2136 30.1014 20.2136ZM30.1014 22.4608C29.7373 22.4608 29.441 22.1671 29.441 21.806C29.441 21.4449 29.7373 21.1511 30.1014 21.1511C30.4655 21.1511 30.7617 21.4449 30.7617 21.806C30.7618 22.1671 30.4655 22.4608 30.1014 22.4608Z" fill="white"/>
<path d="M29.1179 14.5958C28.8475 14.5959 28.5927 14.6634 28.3692 14.782L27.4555 13.8728C27.2719 13.6902 26.9752 13.691 26.7926 13.8744C26.61 14.0579 26.6107 14.3547 26.7942 14.5373L27.7057 15.4442C27.5874 15.6665 27.52 15.9195 27.52 16.1881C27.52 17.0662 28.2368 17.7805 29.1179 17.7805C29.999 17.7805 30.7157 17.0662 30.7157 16.1881C30.7157 15.3101 29.9989 14.5958 29.1179 14.5958ZM29.1179 16.843C28.7538 16.843 28.4576 16.5493 28.4576 16.1882C28.4576 15.8272 28.7538 15.5334 29.1179 15.5334C29.4821 15.5334 29.7783 15.8271 29.7783 16.1882C29.7783 16.5492 29.4821 16.843 29.1179 16.843Z" fill="white"/>
<path d="M28.0616 25.1067C27.1805 25.1067 26.4637 25.821 26.4637 26.6991C26.4637 27.5771 27.1806 28.2914 28.0616 28.2914C28.9427 28.2914 29.6595 27.5771 29.6595 26.6991C29.6595 25.821 28.9427 25.1067 28.0616 25.1067ZM28.0616 27.3539C27.6975 27.3539 27.4012 27.0601 27.4012 26.699C27.4012 26.3379 27.6975 26.0441 28.0616 26.0441C28.4257 26.0441 28.722 26.3379 28.722 26.699C28.7221 27.0601 28.4258 27.3539 28.0616 27.3539Z" fill="white"/>
<path d="M22.5769 8.80906C22.8748 8.80906 23.2303 8.66231 23.4415 8.45219L25.2524 6.65019C25.4344 6.72212 25.6324 6.76213 25.8397 6.76213C26.7208 6.76213 27.4376 6.04781 27.4376 5.16975C27.4376 4.29175 26.7208 3.5775 25.8397 3.5775C24.9587 3.5775 24.2419 4.29181 24.2419 5.16975C24.2419 5.49944 24.343 5.80613 24.516 6.0605L22.7804 7.7875C22.7437 7.82269 22.6276 7.87069 22.5769 7.87156H18.7078V4.76862H19.7961C19.9974 5.41856 20.6058 5.89225 21.3232 5.89225C22.2043 5.89225 22.9211 5.17794 22.9211 4.29987C22.9211 3.42187 22.2043 2.70756 21.3232 2.70756C20.6058 2.70756 19.9974 3.18119 19.7961 3.83113H18.7078V3.76012C18.7078 1.68675 17.0137 0 14.9313 0C13.4427 0 12.1073 0.867625 11.498 2.19425C11.4043 2.18763 11.3108 2.18425 11.2182 2.18425C9.05391 2.18425 7.28734 3.91213 7.23716 6.05525C7.05028 6.02863 6.86128 6.01519 6.67147 6.01519C4.47572 6.01519 2.68941 7.79381 2.68941 9.98C2.68941 10.4599 2.77359 10.9242 2.94009 11.3659C1.30109 12.3384 0.300781 14.0756 0.300781 16C0.300781 17.0332 0.595094 18.0376 1.15184 18.9044C1.61047 19.6184 2.22834 20.2128 2.95509 20.6429C2.78047 21.0954 2.68941 21.5801 2.68941 22.0667C2.68941 23.0318 3.04178 23.9619 3.68159 24.6856C3.85303 24.8795 4.14928 24.8977 4.34328 24.7262C4.53728 24.5547 4.55547 24.2586 4.38397 24.0646C3.89572 23.5124 3.62691 22.8028 3.62691 22.0666C3.62691 21.5714 3.74397 21.099 3.97447 20.6625C4.24959 20.1399 4.67703 19.6987 5.21772 19.4059C5.44541 19.2826 5.52997 18.9982 5.40666 18.7706C5.28341 18.5428 4.99884 18.4581 4.77128 18.5816C4.21134 18.8849 3.74453 19.3102 3.39547 19.8137C2.05509 19.0074 1.23828 17.5818 1.23828 16C1.23828 14.3088 2.17503 12.7926 3.68741 12.0253C3.68741 12.0253 4.56253 11.5384 5.72428 11.5384C5.98322 11.5384 6.19303 11.3286 6.19303 11.0696C6.19303 10.8107 5.98322 10.6009 5.72428 10.6009C5.04328 10.6009 4.39141 10.7268 3.79041 10.956C3.68266 10.6435 3.62703 10.3169 3.62703 9.98006C3.62703 8.31075 4.99278 6.95275 6.67159 6.95275C6.98716 6.95275 7.29934 7.00106 7.59947 7.09637C7.75328 7.14519 7.92134 7.1115 8.04441 7.00712C8.16753 6.90275 8.22828 6.7425 8.20522 6.58275C8.18428 6.43725 8.17366 6.29138 8.17366 6.14913C8.17366 4.47988 9.53947 3.12181 11.2183 3.12181C11.3832 3.12181 11.5517 3.13594 11.7193 3.1635C13.1605 3.40188 14.2628 4.64956 14.2628 6.14913C14.2628 6.40806 14.4727 6.61788 14.7316 6.61788C14.9905 6.61788 15.2003 6.40806 15.2003 6.14913C15.2003 4.39275 14.0469 2.90044 12.4548 2.38131C12.9497 1.50119 13.8903 0.9375 14.9313 0.9375C16.4967 0.9375 17.7703 2.20375 17.7703 3.76012V3.81219H16.8687C16.6098 3.81219 16.4 4.022 16.4 4.28094C16.4 4.53988 16.6098 4.74969 16.8687 4.74969H17.7703V7.8715H13.979C13.1212 7.8715 12.4233 7.17812 12.4233 6.32587C12.4233 6.06694 12.2135 5.85712 11.9546 5.85712C11.6957 5.85712 11.4858 6.06694 11.4858 6.32587C11.4858 7.69506 12.6043 8.809 13.979 8.809H17.7703V16.7H10.1667C9.90772 16.7 9.69791 16.9098 9.69791 17.1688C9.69791 17.4277 9.90772 17.6375 10.1667 17.6375H17.7703V24.0735H16.3218C14.9992 24.0735 13.9232 25.1452 13.9232 26.4626C13.9232 26.7215 14.133 26.9313 14.3919 26.9313C14.6508 26.9313 14.8607 26.7215 14.8607 26.4626C14.8607 25.6622 15.5161 25.011 16.3218 25.011H17.7703V28.2399C17.7703 28.3135 17.7665 28.3862 17.761 28.4584H16.8687C16.6098 28.4584 16.4 28.6682 16.4 28.9272C16.4 29.1861 16.6098 29.3959 16.8687 29.3959H17.5202C17.0752 30.3773 16.0825 31.0625 14.9313 31.0625C13.8973 31.0625 12.9602 30.5046 12.4627 29.6329C13.0289 29.448 13.55 29.1371 13.989 28.7136C14.1753 28.5339 14.1806 28.2371 14.0008 28.0509C13.8211 27.8644 13.5243 27.8592 13.3381 28.0389C12.8905 28.4708 12.3309 28.7496 11.7267 28.8504C11.5563 28.8789 11.3852 28.8934 11.2182 28.8934C9.53934 28.8934 8.17353 27.5353 8.17353 25.866C8.17353 25.8233 8.17609 25.779 8.17816 25.7351C8.55653 25.5811 8.91197 25.3704 9.22897 25.1057C9.42772 24.9399 9.45428 24.6442 9.28834 24.4455C9.12241 24.2467 8.83166 24.2262 8.62809 24.3861C7.68747 25.125 6.77772 25.1135 6.41378 25.0833C6.15503 25.0614 5.92928 25.2537 5.90778 25.5116C5.88634 25.7696 6.07816 25.9961 6.33616 26.0176C6.63584 26.0424 6.94116 26.0337 7.23803 25.9914C7.30466 28.1199 9.06453 29.8309 11.2182 29.8309C11.3131 29.8309 11.4088 29.8273 11.5048 29.8203C12.1174 31.1382 13.4501 32 14.9313 32C17.0137 32 18.7078 30.3133 18.7078 28.2399V27.204H21.1927C21.2435 27.2049 21.3597 27.2528 21.3962 27.2879L22.5138 28.4C22.3626 28.6432 22.275 28.9296 22.275 29.2361C22.275 30.1142 22.9918 30.8285 23.8729 30.8285C24.754 30.8285 25.4708 30.1142 25.4708 29.2361C25.4708 28.3581 24.754 27.6437 23.8729 27.6437C23.6412 27.6437 23.4212 27.6936 23.2222 27.7823L22.0575 26.6234C21.8463 26.4132 21.4908 26.2665 21.1928 26.2665H18.7078V23.7607H22.7828C22.9841 24.4107 23.5925 24.8844 24.31 24.8844C25.1911 24.8844 25.9078 24.1701 25.9078 23.292C25.9078 22.4139 25.191 21.6996 24.31 21.6996C23.5925 21.6996 22.9841 22.1732 22.7828 22.8232H18.7078V19.6833H23.5842C23.7855 20.3332 24.3938 20.8069 25.1113 20.8069C25.9925 20.8069 26.7092 20.0926 26.7092 19.2145C26.7092 18.3364 25.9924 17.6221 25.1113 17.6221C24.3938 17.6221 23.7855 18.0958 23.5842 18.7458H18.7078V15.3339H19.8689C20.0703 15.9838 20.6787 16.4575 21.3961 16.4575C22.2772 16.4575 22.994 15.7432 22.994 14.8652C22.994 13.9871 22.2772 13.2728 21.3961 13.2728C20.6787 13.2728 20.0702 13.7464 19.8689 14.3964H18.7078V11.6914H23.8152C23.866 11.6923 23.9822 11.7402 24.0187 11.7753L24.9816 12.7336C25.073 12.8246 25.1926 12.8701 25.3122 12.8701C25.4325 12.8701 25.5529 12.824 25.6445 12.7319C25.8271 12.5484 25.8263 12.2516 25.6428 12.069L24.68 11.1108C24.4688 10.9006 24.1133 10.7539 23.8153 10.7539H18.7078V8.80906H22.5769ZM25.8397 4.51494C26.2038 4.51494 26.5001 4.80869 26.5001 5.16969C26.5001 5.53075 26.2038 5.82456 25.8397 5.82456C25.4756 5.82456 25.1794 5.53081 25.1794 5.16969C25.1794 4.80869 25.4756 4.51494 25.8397 4.51494ZM21.3232 3.64506C21.6873 3.64506 21.9836 3.93881 21.9836 4.29987C21.9836 4.66094 21.6873 4.95475 21.3232 4.95475C20.9591 4.95475 20.6629 4.661 20.6629 4.29987C20.6628 3.93881 20.9591 3.64506 21.3232 3.64506ZM23.8729 28.5812C24.237 28.5812 24.5333 28.875 24.5333 29.2361C24.5333 29.5971 24.237 29.8909 23.8729 29.8909C23.5088 29.8909 23.2125 29.5972 23.2125 29.2361C23.2125 28.875 23.5088 28.5812 23.8729 28.5812ZM24.31 22.6371C24.6741 22.6371 24.9703 22.9309 24.9703 23.292C24.9703 23.6531 24.6741 23.9469 24.31 23.9469C23.9458 23.9469 23.6496 23.6531 23.6496 23.292C23.6496 22.9309 23.9458 22.6371 24.31 22.6371ZM25.1113 18.5596C25.4754 18.5596 25.7717 18.8534 25.7717 19.2145C25.7717 19.5756 25.4754 19.8694 25.1113 19.8694C24.7472 19.8694 24.4509 19.5756 24.4509 19.2145C24.4509 18.8534 24.7472 18.5596 25.1113 18.5596ZM21.3961 14.2103C21.7602 14.2103 22.0565 14.5041 22.0565 14.8652C22.0565 15.2262 21.7602 15.52 21.3961 15.52C21.032 15.52 20.7357 15.2263 20.7357 14.8652C20.7357 14.5041 21.032 14.2103 21.3961 14.2103Z" fill="white"/>
</g>
<defs>
<clipPath id="clip0_0_2746">
<rect width="32" height="32" fill="white"/>
</clipPath>
</defs>
</svg>
