<svg width="32" height="32" viewBox="0 0 32 32" fill="none" xmlns="http://www.w3.org/2000/svg">
<g clip-path="url(#clip0_0_2726)">
<path d="M16.1097 17.0883C20.8211 17.0883 24.6539 13.2554 24.6539 8.54412C24.6539 3.83287 20.8211 0 16.1097 0C11.3984 0 7.56555 3.83287 7.56555 8.54412C7.56555 13.2554 11.3985 17.0883 16.1097 17.0883ZM16.1097 0.939313C20.3031 0.939313 23.7146 4.35081 23.7146 8.54412C23.7146 12.7374 20.3031 16.149 16.1097 16.149C11.9164 16.149 8.50486 12.7375 8.50486 8.54412C8.50486 4.35087 11.9164 0.939313 16.1097 0.939313Z" fill="white"/>
<path d="M16.1097 14.7234C19.5169 14.7234 22.2889 11.9514 22.2889 8.54418C22.2889 5.13699 19.5169 2.36499 16.1097 2.36499C14.5716 2.36499 13.0976 2.93368 11.9592 3.9663C11.7671 4.14062 11.7527 4.43762 11.9269 4.62974C12.1012 4.82186 12.3983 4.83643 12.5904 4.66205C13.5555 3.78649 14.8054 3.3043 16.1097 3.3043C18.999 3.3043 21.3496 5.65493 21.3496 8.54418C21.3496 11.4334 18.999 13.7841 16.1097 13.7841C13.2204 13.7841 10.8699 11.4335 10.8699 8.54418C10.8699 7.67168 11.0884 6.80812 11.502 6.04687C11.6258 5.81893 11.5414 5.5338 11.3135 5.40999C11.0856 5.28612 10.8005 5.37062 10.6766 5.59849C10.1885 6.49693 9.93054 7.51555 9.93054 8.54418C9.93054 11.9514 12.7025 14.7234 16.1097 14.7234Z" fill="white"/>
<path d="M15.9311 10.757C15.1935 10.712 14.9909 10.2681 14.9533 10.1638C14.8996 9.96302 14.7169 9.81502 14.4992 9.81502C14.2394 9.81502 14.0287 10.0257 14.0287 10.2856C14.0287 10.3234 14.0336 10.3599 14.042 10.3951L14.0418 10.3951C14.0422 10.3968 14.0431 10.4001 14.0443 10.4041C14.0501 10.4263 14.0569 10.4481 14.0657 10.4689C14.1526 10.7085 14.5006 11.452 15.5264 11.6506V12.2755C15.5264 12.5349 15.7367 12.7452 15.9961 12.7452C16.2555 12.7452 16.4657 12.535 16.4657 12.2755V11.6647C16.9153 11.5865 17.2173 11.39 17.4061 11.2123C17.7574 10.8816 17.9672 10.3819 17.9672 9.8754C17.9672 9.39946 17.7806 8.27196 16.0516 8.08121C15.7091 8.0434 15.4648 7.9344 15.3254 7.75727C15.2023 7.60084 15.189 7.42802 15.189 7.36096C15.189 7.27834 15.2117 6.5539 15.9961 6.5539C16.5107 6.5539 16.7185 6.88121 16.7576 6.9524C16.8272 7.12527 16.9962 7.2474 17.1939 7.2474C17.4538 7.2474 17.6645 7.03671 17.6645 6.77684C17.6645 6.69959 17.6455 6.62684 17.6125 6.56252L17.6127 6.5624C17.4804 6.27465 17.1066 5.82446 16.4657 5.66946V5.03902C16.4657 4.77965 16.2554 4.56934 15.996 4.56934C15.7366 4.56934 15.5263 4.77965 15.5263 5.03902V5.66746C14.5993 5.88759 14.2496 6.75252 14.2496 7.3609C14.2496 8.03734 14.6945 8.8764 15.9485 9.01477C17.0277 9.1339 17.0277 9.69196 17.0277 9.87534C17.0277 10.0701 16.9581 10.344 16.7623 10.5281C16.5772 10.7023 16.2977 10.7793 15.9311 10.757Z" fill="white"/>
<path d="M8.13988 21.7497C8.05113 21.6553 7.92732 21.6018 7.79775 21.6018C7.66819 21.6018 7.54444 21.6553 7.45563 21.7497L4.26519 25.1414C4.13682 25.2779 4.10188 25.4776 4.17619 25.6496C4.2505 25.8216 4.41994 25.9329 4.60732 25.9329H5.52944V27.6384C5.52944 27.8978 5.73975 28.1081 5.99913 28.1081C6.2585 28.1081 6.46882 27.8978 6.46882 27.6384V25.4632C6.46882 25.2038 6.2585 24.9935 5.99913 24.9935H5.69388L7.79769 22.7569L9.9015 24.9935H9.59625C9.33688 24.9935 9.12657 25.2038 9.12657 25.4632V31.0607H6.46869V29.5171C6.46869 29.2577 6.25838 29.0474 5.999 29.0474C5.73963 29.0474 5.52932 29.2577 5.52932 29.5171V31.5304C5.52932 31.7897 5.73963 32.0001 5.999 32.0001H9.59619C9.85557 32.0001 10.0659 31.7897 10.0659 31.5304V25.9329H10.988C11.1753 25.9329 11.3448 25.8216 11.4191 25.6496C11.4934 25.4776 11.4585 25.2779 11.3301 25.1414L8.13988 21.7497Z" fill="white"/>
<path d="M16.4518 18.5185C16.363 18.4241 16.2392 18.3706 16.1097 18.3706C15.9801 18.3706 15.8564 18.4241 15.7675 18.5185L12.5772 21.9103C12.4488 22.0468 12.4138 22.2465 12.4882 22.4184C12.5625 22.5904 12.7319 22.7017 12.9193 22.7017H13.8414V31.5304C13.8414 31.7898 14.0517 32.0001 14.3111 32.0001H17.9083C18.1677 32.0001 18.378 31.7898 18.378 31.5304V22.7017H19.3001C19.4875 22.7017 19.6569 22.5904 19.7312 22.4184C19.8055 22.2465 19.7705 22.0467 19.6422 21.9103L16.4518 18.5185ZM17.9083 21.7624C17.6489 21.7624 17.4386 21.9727 17.4386 22.2321V31.0608H14.7807V22.232C14.7807 21.9727 14.5704 21.7624 14.311 21.7624H14.0058L16.1096 19.5257L18.2134 21.7624L17.9083 21.7624Z" fill="white"/>
<path d="M24.7638 15.5287C24.675 15.4344 24.5512 15.3809 24.4216 15.3809C24.2921 15.3809 24.1683 15.4344 24.0795 15.5287L20.8891 18.9205C20.7607 19.0569 20.7257 19.2567 20.8 19.4286C20.8744 19.6006 21.0438 19.7119 21.2311 19.7119H22.1533V22.5781C22.1533 22.8375 22.3635 23.0478 22.623 23.0478C22.8824 23.0478 23.0926 22.8375 23.0926 22.5781V19.2423C23.0926 18.9829 22.8824 18.7726 22.623 18.7726H22.3178L24.4216 16.536L26.5253 18.7726H26.2201C25.9607 18.7726 25.7505 18.9829 25.7505 19.2423V31.0607H23.0926V24.4568C23.0926 24.1974 22.8823 23.9871 22.6229 23.9871C22.3635 23.9871 22.1532 24.1974 22.1532 24.4568V31.5304C22.1532 31.7897 22.3635 32 22.6229 32H26.2201C26.4796 32 26.6898 31.7897 26.6898 31.5304V19.7119H27.612C27.7993 19.7119 27.9687 19.6006 28.0431 19.4286C28.1174 19.2567 28.0824 19.0569 27.954 18.9205L24.7638 15.5287Z" fill="white"/>
<path d="M5.80032 8.71236C5.80032 8.45299 5.59001 8.24268 5.33064 8.24268H2.57595C2.31657 8.24268 2.10626 8.45299 2.10626 8.71236C2.10626 8.97174 2.31651 9.18205 2.57595 9.18205H5.33064C5.59007 9.18199 5.80032 8.97174 5.80032 8.71236Z" fill="white"/>
<path d="M5.93828 12.3982L4.95853 12.782C4.71697 12.8766 4.5979 13.1491 4.69253 13.3906C4.76509 13.5759 4.94234 13.6891 5.12997 13.6891C5.18697 13.6891 5.2449 13.6786 5.30115 13.6566L6.2809 13.2728C6.52247 13.1781 6.64153 12.9056 6.5469 12.6641C6.45222 12.4227 6.17972 12.3036 5.93828 12.3982Z" fill="white"/>
<path d="M4.95852 4.6424L5.93827 5.02621C5.99458 5.04827 6.05246 5.05871 6.10946 5.05871C6.29708 5.05871 6.47433 4.94546 6.5469 4.76028C6.64152 4.51878 6.52246 4.24628 6.2809 4.15165L5.30115 3.76784C5.05952 3.67321 4.78715 3.79234 4.69252 4.03384C4.5979 4.27527 4.71702 4.54777 4.95852 4.6424Z" fill="white"/>
<path d="M29.4241 8.24268H26.6694C26.41 8.24268 26.1997 8.45299 26.1997 8.71236C26.1997 8.97174 26.41 9.18205 26.6694 9.18205H29.4241C29.6835 9.18205 29.8938 8.97174 29.8938 8.71236C29.8937 8.45299 29.6835 8.24268 29.4241 8.24268Z" fill="white"/>
<path d="M25.7191 13.2728L26.6988 13.6566C26.7551 13.6786 26.813 13.6891 26.87 13.6891C27.0576 13.6891 27.2349 13.5758 27.3075 13.3906C27.4021 13.1491 27.283 12.8766 27.0415 12.782L26.0618 12.3982C25.8201 12.3036 25.5478 12.4227 25.4531 12.6642C25.3585 12.9056 25.4776 13.1781 25.7191 13.2728Z" fill="white"/>
<path d="M25.8906 5.05873C25.9476 5.05873 26.0056 5.04829 26.0618 5.02623L27.0415 4.64242C27.283 4.54779 27.4021 4.27529 27.3075 4.03379C27.2128 3.79223 26.9402 3.67329 26.6988 3.76779L25.7191 4.15161C25.4776 4.24623 25.3585 4.51873 25.4531 4.76023C25.5257 4.94554 25.703 5.05873 25.8906 5.05873Z" fill="white"/>
</g>
<defs>
<clipPath id="clip0_0_2726">
<rect width="32" height="32" fill="white"/>
</clipPath>
</defs>
</svg>
