<svg width="208" height="48" viewBox="0 0 208 48" fill="none" xmlns="http://www.w3.org/2000/svg">
<path d="M46.3958 10.9573C44.8931 10.7113 39.7332 12.3791 39.5975 13.9798C39.5748 14.2436 39.7695 14.5343 39.9731 14.5834C40.4801 14.7131 42.8654 12.9783 43.7706 12.6429C49.5867 10.4967 58.4943 12.1064 60.5899 18.5942C61.9251 22.7301 60.092 28.8021 61.6535 32.3344C62.4683 34.181 63.4188 33.2867 63.197 36.2467C62.3551 47.4606 47.5454 47.796 46.6447 35.4821C46.3822 31.9051 47.6631 28.0017 47.4504 24.8405C47.3825 23.8121 46.2872 21.9387 45.4589 23.1325C45.219 23.4768 45.6354 27.7558 45.6128 28.735C45.5403 31.8738 44.798 34.4761 45.4046 37.7401C45.5992 38.7864 46.5451 40.6017 46.6085 41.2277C46.6855 42.0057 43.4945 43.7629 42.707 44.0267C38.2668 45.4978 33.2427 44.3978 31.5997 39.703C31.2059 26.9688 31.4865 14.1497 31.4549 1.38875C34.9762 -0.395281 45.4498 -1.26271 46.3279 3.87925C46.6945 6.03439 46.1876 8.73057 46.3913 10.9528L46.3958 10.9573Z" fill="#7D4C0D"/>
<path d="M73.9738 36.6402L78.147 25.3771C78.4185 25.006 80.1611 25.6588 81.1886 24.1743C81.7498 23.3605 83.8092 18.4779 84.0898 17.4406C84.3705 16.4033 83.8997 15.8756 83.4064 16.5553C82.7591 17.4451 82.1707 20.4408 81.4511 21.3216C81.1524 21.6838 80.9713 21.6167 80.5413 21.5899C80.0751 21.1473 82.7773 16.7073 82.6415 16.0187C82.6007 15.8041 82.1798 15.4866 81.8449 15.7415C81.3425 16.1305 79.9529 20.6286 79.713 20.7717C79.5682 20.8566 78.7399 20.8387 78.6992 20.8074C78.4548 20.5973 81.1478 15.7728 80.7993 14.8428C80.2562 14.731 80.1928 15.1066 79.962 15.4419C79.2468 16.4837 78.7037 18.384 78.1243 19.6047C77.9886 19.8908 77.9795 20.4676 77.5224 20.2888C76.9521 20.0652 77.2191 19.712 77.3323 19.3364C77.5721 18.5316 79.6135 14.7042 79.2242 14.3286C79.1925 14.2973 78.5815 14.2973 78.4729 14.3644C78.1198 14.5834 75.3498 21.5184 75.3 22.0147C75.1371 23.6959 76.5719 24.219 76.4904 24.7198L71.4663 35.3525C60.8841 30.0764 59.5127 9.72766 71.1676 4.94341C84.8095 -0.659083 96.7541 10.0272 94.6902 24.0312C93.1422 34.5387 83.9812 38.9921 73.9693 36.6447L73.9738 36.6402Z" fill="#7D4C0D"/>
<path d="M14.1332 24.4873C13.6444 25.2519 14.4908 27.3444 15.0294 28.0598C17.7813 31.7084 24.1316 31.6771 27.6212 29.124C31.2693 35.2586 28.2142 42.4841 21.3027 44.4068C3.61891 49.3296 -6.33868 28.4712 4.50604 16.6581C11.9878 8.507 32.9938 10.2553 29.7304 23.4142C28.4586 28.5561 22.3709 31.5251 17.7904 28.4488C15.9754 27.2326 15.5228 24.5767 15.1607 24.2905C14.9389 24.1162 14.2056 24.38 14.1378 24.4873H14.1332Z" fill="#7D4C0D"/>
<path d="M115.207 47.796C106.902 48.9361 99.8049 45.2787 97.0756 37.2974C92.3367 23.4276 100.778 11.0467 116.199 15.035C130.705 18.782 131.918 41.3976 118.222 46.9911C117.977 46.9733 117.656 46.1595 117.525 45.8957C116.814 44.4515 113.822 37.3735 113.673 36.1796C113.546 35.1512 114.334 34.874 114.56 34.0558C115.484 30.6487 112.311 23.8881 108.545 26.2981C105.874 28.0062 107.377 33.4298 109.428 35.2183C110.287 35.9695 111.116 35.9829 111.917 36.6491C112.953 40.3781 114.406 44.0312 115.207 47.796Z" fill="#7D4C0D"/>
<path d="M189.011 34.5655C188.957 35.6431 190.034 35.9248 190.908 36.1931C195.728 37.673 201.2 36.6849 205.41 34.0468C206.659 35.5447 207.17 38.5181 206.858 40.3871C206.546 42.2561 202.554 43.8568 200.834 44.295C185.178 48.2878 170.481 37.5926 179.42 21.5854C186.63 8.68138 210.063 11.4804 207.854 27.6216C206.758 35.6341 195.253 36.9711 189.011 34.5655ZM195.022 25.5112C193.433 24.4113 190.496 27.0404 192.804 27.3176C194.302 27.4964 195.325 27.1924 195.022 25.5112Z" fill="#7D4C0D"/>
<path d="M144.401 24.4873C144.261 24.7198 144.401 25.1848 144.361 25.4844C151.756 25.1177 160.152 28.8244 158.215 37.4853C157.36 41.3082 154.019 43.3784 150.403 44.2995C144.523 45.7973 127.455 45.7839 129.506 36.1081C129.659 35.3927 130.827 33.0408 131.619 33.0945C131.832 33.1079 134.516 34.7131 135.362 35.0171C136.901 35.576 141.953 36.7654 143.238 36.1841C145.859 34.9992 140.744 35.0976 140.319 35.0484C133.385 34.2659 127.7 30.1569 129.465 22.5736C131.57 13.5238 143.953 12.9067 151.322 15.0976C152.652 15.4911 155.567 16.363 156.002 17.7402C156.314 18.7283 156.296 21.6615 156.156 22.7346C156.061 23.45 155.024 26.2937 154.259 26.2266C153.97 26.1998 151.897 25.1177 151.127 24.8942C150.082 24.5857 144.931 23.5975 144.401 24.4828V24.4873Z" fill="#7D4C0D"/>
<path d="M174.564 18.4779V33.3985C174.564 34.9545 176.451 36.3361 176.623 36.8101C176.963 37.7669 176.438 40.092 176.008 41.0488C173.672 46.3115 163.194 45.8599 160.772 40.5302C160.664 40.2887 160.116 38.688 160.116 38.5852V18.2186C163.873 22.815 170.803 23.3471 174.559 18.4779H174.564Z" fill="#7D4C0D"/>
<path d="M165.828 4.79138C177.107 3.04759 178.361 19.1128 168.847 20.49C157.889 22.0728 156.559 6.22665 165.828 4.79138Z" fill="#7D4C0D"/>
</svg>
