<svg width="208" height="48" viewBox="0 0 208 48" fill="none" xmlns="http://www.w3.org/2000/svg">
<path d="M46.3958 10.9573C44.8931 10.7113 39.7332 12.3791 39.5975 13.9798C39.5748 14.2436 39.7695 14.5343 39.9731 14.5834C40.4801 14.7131 42.8654 12.9783 43.7706 12.6429C49.5867 10.4967 58.4943 12.1064 60.5899 18.5942C61.9251 22.7301 60.092 28.8021 61.6535 32.3344C62.4683 34.181 63.4188 33.2867 63.197 36.2467C62.3551 47.4606 47.5454 47.796 46.6447 35.4821C46.3822 31.9051 47.6631 28.0017 47.4504 24.8405C47.3825 23.8121 46.2872 21.9387 45.4589 23.1325C45.219 23.4768 45.6354 27.7558 45.6128 28.735C45.5403 31.8738 44.798 34.4761 45.4046 37.7401C45.5992 38.7864 46.5451 40.6017 46.6085 41.2277C46.6855 42.0057 43.4945 43.7629 42.707 44.0267C38.2668 45.4978 33.2427 44.3978 31.5997 39.703C31.2059 26.9688 31.4865 14.1497 31.4549 1.38875C34.9762 -0.395281 45.4498 -1.26271 46.3279 3.87925C46.6945 6.03439 46.1876 8.73057 46.3913 10.9528L46.3958 10.9573Z" fill="#F3EEE7"/>
<path d="M73.9738 36.6402L78.147 25.3771C78.4185 25.0059 80.1611 25.6588 81.1886 24.1743C81.7498 23.3605 83.8092 18.4779 84.0898 17.4406C84.3705 16.4032 83.8997 15.8756 83.4064 16.5553C82.7591 17.445 82.1707 20.4408 81.4511 21.3216C81.1524 21.6838 80.9713 21.6167 80.5413 21.5899C80.0751 21.1472 82.7773 16.7073 82.6415 16.0187C82.6007 15.8041 82.1798 15.4866 81.8449 15.7415C81.3425 16.1305 79.9529 20.6286 79.713 20.7717C79.5682 20.8566 78.7399 20.8387 78.6992 20.8074C78.4548 20.5973 81.1478 15.7728 80.7993 14.8428C80.2562 14.731 80.1928 15.1066 79.962 15.4419C79.2468 16.4837 78.7037 18.384 78.1243 19.6047C77.9886 19.8908 77.9795 20.4676 77.5224 20.2888C76.9521 20.0652 77.2191 19.712 77.3323 19.3364C77.5721 18.5316 79.6135 14.7042 79.2242 14.3286C79.1925 14.2973 78.5815 14.2973 78.4729 14.3643C78.1198 14.5834 75.3498 21.5184 75.3 22.0147C75.1371 23.6959 76.5719 24.219 76.4904 24.7198L71.4663 35.3524C60.8841 30.0764 59.5127 9.72764 71.1676 4.94339C84.8095 -0.659096 96.7541 10.0272 94.6902 24.0312C93.1422 34.5387 83.9812 38.9921 73.9693 36.6446L73.9738 36.6402Z" fill="#F3EEE7"/>
<path d="M14.1332 24.4872C13.6444 25.2518 14.4908 27.3443 15.0294 28.0597C17.7813 31.7083 24.1316 31.677 27.6212 29.1239C31.2693 35.2585 28.2142 42.484 21.3027 44.4067C3.61891 49.3295 -6.33868 28.4711 4.50604 16.658C11.9878 8.50691 32.9938 10.2552 29.7304 23.4141C28.4586 28.556 22.3709 31.525 17.7904 28.4487C15.9754 27.2326 15.5228 24.5766 15.1607 24.2905C14.9389 24.1161 14.2056 24.3799 14.1378 24.4872H14.1332Z" fill="#F3EEE7"/>
<path d="M115.207 47.796C106.902 48.9362 99.8049 45.2787 97.0756 37.2975C92.3367 23.4277 100.778 11.0467 116.199 15.0351C130.705 18.782 131.918 41.3977 118.222 46.9912C117.977 46.9733 117.656 46.1596 117.525 45.8958C116.814 44.4515 113.822 37.3735 113.673 36.1797C113.546 35.1513 114.334 34.8741 114.56 34.0559C115.484 30.6487 112.311 23.8882 108.545 26.2982C105.874 28.0062 107.377 33.4299 109.428 35.2184C110.287 35.9695 111.116 35.983 111.917 36.6492C112.953 40.3782 114.406 44.0312 115.207 47.796Z" fill="#F3EEE7"/>
<path d="M189.011 34.5656C188.957 35.6432 190.034 35.9249 190.908 36.1931C195.728 37.6731 201.2 36.685 205.41 34.0469C206.659 35.5448 207.17 38.5182 206.858 40.3872C206.546 42.2562 202.554 43.8569 200.834 44.2951C185.178 48.2879 170.481 37.5926 179.42 21.5855C186.63 8.68145 210.063 11.4805 207.854 27.6217C206.758 35.6342 195.253 36.9711 189.011 34.5656ZM195.022 25.5113C193.433 24.4114 190.496 27.0405 192.804 27.3177C194.302 27.4965 195.325 27.1925 195.022 25.5113Z" fill="#F3EEE7"/>
<path d="M144.401 24.4873C144.261 24.7199 144.401 25.1849 144.361 25.4844C151.756 25.1178 160.152 28.8245 158.215 37.4853C157.36 41.3082 154.019 43.3784 150.403 44.2995C144.523 45.7974 127.455 45.784 129.506 36.1082C129.659 35.3928 130.827 33.0409 131.619 33.0945C131.832 33.1079 134.516 34.7131 135.362 35.0172C136.901 35.5761 141.953 36.7654 143.238 36.1842C145.859 34.9993 140.744 35.0977 140.319 35.0485C133.385 34.266 127.7 30.1569 129.465 22.5736C131.57 13.5238 143.953 12.9068 151.322 15.0977C152.652 15.4912 155.567 16.3631 156.002 17.7402C156.314 18.7284 156.296 21.6615 156.156 22.7346C156.061 23.45 155.024 26.2937 154.259 26.2267C153.97 26.1998 151.897 25.1178 151.127 24.8942C150.082 24.5857 144.931 23.5976 144.401 24.4829V24.4873Z" fill="#F3EEE7"/>
<path d="M174.564 18.4778V33.3984C174.564 34.9544 176.451 36.3361 176.623 36.81C176.963 37.7669 176.438 40.0919 176.008 41.0488C173.672 46.3114 163.194 45.8598 160.772 40.5301C160.664 40.2887 160.116 38.6879 160.116 38.5851V18.2185C163.873 22.815 170.803 23.347 174.559 18.4778H174.564Z" fill="#F3EEE7"/>
<path d="M165.828 4.79133C177.107 3.04754 178.361 19.1128 168.847 20.4899C157.889 22.0728 156.559 6.22661 165.828 4.79133Z" fill="#F3EEE7"/>
</svg>
